<svg width="800" height="800" viewBox="0 0 800 800" fill="none" xmlns="http://www.w3.org/2000/svg">
    <path
        d="M750 306.311C750 348.844 715.511 383.333 672.978 383.333H115.911C73.3778 383.333 38.8889 348.844 38.8889 306.311V115.911C38.8889 73.3778 73.3778 38.8889 115.911 38.8889H672.989C715.522 38.8889 750.011 73.3778 750.011 115.911L750 306.311ZM705.556 115.911C705.556 97.9222 690.967 83.3334 672.978 83.3334H115.911C97.9222 83.3334 83.3334 97.9222 83.3334 115.911V306.322C83.3334 324.311 97.9222 338.9 115.911 338.9H672.989C690.978 338.9 705.567 324.311 705.567 306.322L705.556 115.911Z"
        fill="#35D24A" />
    <path
        d="M127.778 216.667C121.633 216.667 116.667 211.7 116.667 205.556V185.533C116.667 157.133 130.511 127.778 160.667 127.778H234.711C240.856 127.778 245.822 132.744 245.822 138.889C245.822 145.033 240.856 150 234.711 150H160.667C144.422 150 138.889 168.067 138.889 185.533V205.556C138.889 211.7 133.911 216.667 127.778 216.667Z"
        fill="#35D24A" />
    <path
        d="M668.044 217C674.189 217 679.156 221.967 679.156 228.111V248.133C679.156 276.533 665.311 305.889 635.156 305.889H561.111C554.967 305.889 550 300.922 550 294.778C550 288.633 554.967 283.667 561.111 283.667H635.156C651.4 283.667 656.933 265.6 656.933 248.133V228.111C656.933 221.967 661.911 217 668.044 217Z"
        fill="#35D24A" />
    <path
        d="M405.111 211.125C402.222 211.125 399.322 209.903 397.222 207.903C395.111 205.803 394 202.903 394 200.014C394 197.125 395.111 194.236 397.222 192.125C401.444 187.903 408.778 188.014 412.889 192.125C414.989 194.236 416.222 197.125 416.222 200.014C416.222 202.903 415 205.803 413 207.792C410.778 209.892 408 211.125 405.111 211.125Z"
        fill="#35D24A" />
    <path
        d="M516.667 684.089C516.667 726.622 482.178 761.111 439.644 761.111H115.911C73.3778 761.111 38.8889 726.622 38.8889 684.089V493.689C38.8889 451.156 73.3778 416.667 115.911 416.667H439.656C482.189 416.667 516.678 451.156 516.678 493.689L516.667 684.089ZM472.222 493.689C472.222 475.7 457.633 461.111 439.644 461.111H115.911C97.9222 461.111 83.3334 475.7 83.3334 493.689V684.1C83.3334 702.089 97.9222 716.678 115.911 716.678H439.656C457.644 716.678 472.233 702.089 472.233 684.1L472.222 493.689Z"
        fill="#E32C2C" />
    <path
        d="M761.111 684.089C761.111 726.622 726.622 761.111 684.089 761.111H627.011C584.478 761.111 549.989 726.622 549.989 684.089V493.689C549.989 451.156 584.478 416.667 627.011 416.667H684.089C726.622 416.667 761.111 451.156 761.111 493.689V684.089ZM716.667 493.689C716.667 475.7 702.078 461.111 684.089 461.111H627.011C609.022 461.111 594.433 475.7 594.433 493.689V684.1C594.433 702.089 609.022 716.678 627.011 716.678H684.089C702.078 716.678 716.667 702.089 716.667 684.1V493.689Z"
        fill="#5325B7" />
</svg>
